<?xml version="1.0" encoding="utf-8"?>
<!-- Svg Vector Icons : http://www.onlinewebfonts.com/icon -->
<!DOCTYPE svg PUBLIC "-//W3C//DTD SVG 1.1//EN" "http://www.w3.org/Graphics/SVG/1.1/DTD/svg11.dtd">
<svg version="1.1" xmlns="http://www.w3.org/2000/svg" xmlns:xlink="http://www.w3.org/1999/xlink" x="0px" y="0px" viewBox="0 0 1000 1000" enable-background="new 0 0 1000 1000" xml:space="preserve">
<metadata> Svg Vector Icons : http://www.onlinewebfonts.com/icon </metadata>
<g><path d="M486.7,641.4L352.9,990l-57.4-128.9l-128.9,57.4L298.9,574C351.5,614,416.3,638.6,486.7,641.4L486.7,641.4L486.7,641.4z M701.1,574l132.3,344.5l-128.9-57.4L647.1,990L513.3,641.4C583.7,638.6,648.5,614,701.1,574L701.1,574L701.1,574z M500,608.4c165.3,0,299.2-134,299.2-299.2S665.3,10,500,10c-165.3,0-299.2,134-299.2,299.2S334.7,608.4,500,608.4L500,608.4z M500,398.7l-116.4,76.7l49.9-133L333.8,276h116.4L500,143l49.9,133h116.4l-99.7,66.5l49.9,133L500,398.7L500,398.7z" fill="rgb(255,255,255)"/></g>
</svg>