<svg xmlns="http://www.w3.org/2000/svg" width="47.525" height="45.039" viewBox="0 0 47.525 45.039">
  <path id="Health-Icon-SVG-vd3s" d="M2.829,24.251h9.1l3.79-6.631,7.184,18.559,6.128-24.514,3.993,13.154H43.744C37.572,36.112,23.269,43.964,23.269,43.964S9.029,35.6,2.829,24.251ZM16.067,13.013l-5.288,9.252H1.843A20.08,20.08,0,0,1,.011,14.81C-.283,6.637,6.043,0,13.482,0a12.9,12.9,0,0,1,9.787,4.637A12.892,12.892,0,0,1,33.053,0c7.44,0,13.472,6.631,13.472,14.81a19.792,19.792,0,0,1-1.8,8.023H34.5L28.849,4.219,22.5,29.625Z" fill="rgb(255,255,255)" transform="translate(0.5 0.5)"  stroke-miterlimit="10" stroke-width="1"/>
</svg>
